<?xml version="1.0" encoding="UTF-8" standalone="no"?>
<svg
   id="Ebene_1"
   data-name="Ebene 1"
   viewBox="0 0 737.00784 1511.811"
   version="1.1"
   sodipodi:docname="10 raster -gedruckt.svg"
   width="195mm"
   height="400mm"
   inkscape:version="1.4 (86a8ad7, 2024-10-11)"
   xmlns:inkscape="http://www.inkscape.org/namespaces/inkscape"
   xmlns:sodipodi="http://sodipodi.sourceforge.net/DTD/sodipodi-0.dtd"
   xmlns="http://www.w3.org/2000/svg"
   xmlns:svg="http://www.w3.org/2000/svg">
  <sodipodi:namedview
     id="namedview11901"
     pagecolor="#ffffff"
     bordercolor="#000000"
     borderopacity="0.25"
     inkscape:showpageshadow="2"
     inkscape:pageopacity="0.0"
     inkscape:pagecheckerboard="0"
     inkscape:deskcolor="#d1d1d1"
     inkscape:zoom="0.38641024"
     inkscape:cx="474.8839"
     inkscape:cy="744.02791"
     inkscape:window-width="1920"
     inkscape:window-height="1051"
     inkscape:window-x="-9"
     inkscape:window-y="-9"
     inkscape:window-maximized="1"
     inkscape:current-layer="Ebene_1"
     inkscape:document-units="mm"
     showguides="true">
    <sodipodi:guide
       position="355.00796,1303.1981"
       orientation="1,0"
       id="guide11901"
       inkscape:locked="false" />
    <sodipodi:guide
       position="-77.637691,1397.9424"
       orientation="0,-1"
       id="guide11902"
       inkscape:locked="false" />
    <sodipodi:guide
       position="-356.8379,113.73838"
       orientation="0,-1"
       id="guide11903"
       inkscape:locked="false" />
  </sodipodi:namedview>
  <defs
     id="defs1">
    <style
       id="style1">
      .cls-1 {
        fill: none;
        stroke: #010101;
        stroke-width: .5px;
      }
    </style>
    <pattern
       id="EMFhbasepattern"
       patternUnits="userSpaceOnUse"
       width="6"
       height="6"
       x="0"
       y="0" />
    <pattern
       id="EMFhbasepattern-4"
       patternUnits="userSpaceOnUse"
       width="6"
       height="6"
       x="0"
       y="0" />
  </defs>
  <g
     inkscape:groupmode="layer"
     id="layer1"
     inkscape:label="Layer 1"
     style="display:none"
     sodipodi:insensitive="true">
    <rect
       style="fill:#ff2a2a;stroke-width:0.39632"
       id="rect11901"
       width="530.68201"
       height="1354.1542"
       x="107.96634"
       y="69.537643"
       rx="15.118111"
       ry="16.623182" />
  </g>
  <g
     id="g11903">
    <path
       style="fill:#c9971b;fill-opacity:1;fill-rule:nonzero;stroke:none"
       d="m 452.61689,597.27865 v -12.33332 h -12.33334 v -12.33334 h -12.33333 -12.33333 v 12.33334 h -12.33334 v 12.33332 h -12.33333 v 12.33333 h -12.33333 v 12.33334 h 12.33333 12.33333 12.33334 12.33333 12.33333 v -12.33334 h 12.33334 12.33333 12.33333 v -12.33333 h -12.33333 z"
       id="path1" />
    <path
       style="fill:#c9971b;fill-opacity:1;fill-rule:nonzero;stroke:none"
       d="m 538.95021,510.94533 v -12.33334 h -12.33333 -12.33334 -12.33333 v 12.33334 h -12.33332 v 12.33333 h -12.33334 v 12.33333 12.33334 12.33333 12.33333 h 12.33334 v 12.33334 12.33332 12.33333 h 12.33332 v -12.33333 h 12.33333 v -12.33332 -12.33334 -12.33333 h 12.33334 v -12.33333 h 12.33333 v -12.33334 h 12.33333 v -12.33333 -12.33333 z"
       id="path2" />
    <path
       style="fill:#dedfdc;fill-opacity:1;fill-rule:nonzero;stroke:none"
       d="m 477.28355,609.61198 h -12.33333 -12.33333 -12.33334 v 12.33334 h -12.33333 -12.33333 -12.33334 -12.33333 v 12.33333 h 12.33333 12.33334 12.33333 12.33333 12.33334 12.33333 v 12.33334 h 12.33333 v -12.33334 -12.33333 h 12.33334 v -12.33334 z"
       id="path3" />
    <path
       style="fill:#fff8c9;fill-opacity:1;fill-rule:nonzero;stroke:none"
       d="m 477.28355,658.94529 v -12.3333 h -12.33333 v -12.33334 h -12.33333 -12.33334 -12.33333 -12.33333 v 12.33334 h 12.33333 v 12.3333 h 12.33333 12.33334 v 12.3334 h 12.33333 v 12.3333 h 12.33333 12.33334 12.33332 v -12.3333 -12.3334 h -12.33332 z"
       id="path4" />
    <path
       style="fill:#fff8c9;fill-opacity:1;fill-rule:nonzero;stroke:none"
       d="m 637.61688,584.94533 v -12.33334 h -12.33334 -12.33333 -12.33333 v 12.33334 h -12.33334 -12.33333 -12.33333 v 12.33332 h -12.33334 -12.33333 v 12.33333 h -12.33333 -12.33334 -12.33333 v 12.33334 h 12.33333 v 12.33333 h 12.33334 v 12.33334 12.3333 h 12.33333 12.33333 v 12.3334 h 12.33334 12.33333 12.33333 v -12.3334 h 12.33334 v -12.3333 h 12.33333 v -12.33334 h 12.33333 v -12.33333 h 12.33334 v -12.33334 h 12.33333 v -12.33333 -12.33332 z"
       id="path5" />
    <path
       style="fill:#eace75;fill-opacity:1;fill-rule:nonzero;stroke:none"
       d="m 477.28355,572.61199 v -12.33333 -12.33333 -12.33334 h -12.33333 v 12.33334 h -12.33333 -12.33334 v 12.33333 h -12.33333 v 12.33333 h 12.33333 v 12.33334 h 12.33334 v 12.33332 h 12.33333 12.33333 v 12.33333 h 12.33334 v -12.33333 -12.33332 -12.33334 z"
       id="path6" />
    <path
       style="fill:#9ca1a8;fill-opacity:1;fill-rule:nonzero;stroke:none"
       d="m 489.61689,621.94532 h -12.33334 v 12.33333 12.33334 12.3333 h 12.33334 12.33332 v 12.3334 h 12.33333 v -12.3334 h 12.33334 v -12.3333 -12.33334 h -12.33334 v -12.33333 h -12.33333 v -12.33334 h -12.33332 z"
       id="path7" />
    <path
       style="fill:#9ca1a8;fill-opacity:1;fill-rule:nonzero;stroke:none"
       d="m 600.61688,560.27866 v -12.33333 h -12.33334 v -12.33334 h -12.33333 -12.33333 v -12.33333 h -12.33334 v 12.33333 h -12.33333 v 12.33334 h -12.33333 v 12.33333 h -12.33334 v 12.33333 12.33334 12.33332 h -12.33333 v 12.33333 h 12.33333 12.33334 12.33333 v -12.33333 h 12.33333 12.33334 v -12.33332 h 12.33333 12.33333 12.33334 v -12.33334 h 12.33333 v -12.33333 z"
       id="path8" />
    <path
       style="fill:#fbcb00;fill-opacity:1;fill-rule:nonzero;stroke:none"
       d="m 563.61688,671.27869 h -12.33334 v -12.3334 h -12.33333 -12.33333 -12.33334 v 12.3334 h -12.33333 v 12.3333 h -12.33332 v 12.3333 h 12.33332 v 12.3334 h 12.33333 12.33334 v 12.3333 h 12.33333 v -12.3333 h 12.33333 v -12.3334 h 12.33334 v -12.3333 h 12.33333 v -12.3333 z"
       id="path9" />
    <path
       style="fill:#dedcdd;fill-opacity:1;fill-rule:nonzero;stroke:none"
       d="m 538.95021,841.94529 v -12.3333 h -12.33333 -12.33334 -12.33333 v 12.3333 h -12.33332 v 12.3334 h -12.33334 v 12.3333 h -12.33333 v 12.3333 h -12.33333 -12.33334 v 12.3334 h -12.33333 v 12.3333 h -12.33333 v 12.3333 h -12.33334 v 12.3334 h -12.33333 v 12.3333 h -12.33333 v 12.3333 h 12.33333 12.33333 12.33334 12.33333 12.33333 v -12.3333 h 12.33334 12.33333 12.33333 12.33334 12.33332 v -12.3333 h 12.33333 v -12.3334 -12.3333 -12.3333 h 12.33334 v -12.3334 h 12.33333 v -12.3333 h 12.33333 v -12.3333 -12.3334 z"
       id="path10" />
    <path
       style="fill:#c9971b;fill-opacity:1;fill-rule:nonzero;stroke:none"
       d="m 477.28355,940.61199 h -12.33333 -12.33333 -12.33334 v 12.3333 h -12.33333 -12.33333 -12.33334 -12.33333 v 12.3334 h 12.33333 12.33334 12.33333 12.33333 12.33334 12.33333 v 12.3333 h 12.33333 v -12.3333 -12.3334 h 12.33334 v -12.3333 z"
       id="path11" />
    <path
       style="fill:#fbcb00;fill-opacity:1;fill-rule:nonzero;stroke:none"
       d="m 477.28355,989.94529 v -12.3333 h -12.33333 v -12.3333 h -12.33333 -12.33334 -12.33333 -12.33333 v 12.3333 h 12.33333 v 12.3333 h 12.33333 12.33334 v 12.33341 h 12.33333 v 12.3333 h 12.33333 12.33334 12.33332 v -12.3333 -12.33341 h -12.33332 z"
       id="path12" />
    <path
       style="fill:#fbcb00;fill-opacity:1;fill-rule:nonzero;stroke:none"
       d="m 637.61688,915.94529 v -12.3333 h -12.33334 -12.33333 -12.33333 v 12.3333 h -12.33334 -12.33333 -12.33333 v 12.3334 h -12.33334 -12.33333 v 12.3333 h -12.33333 -12.33334 -12.33333 v 12.3333 h 12.33333 v 12.3334 h 12.33334 v 12.3333 12.3333 h 12.33333 12.33333 v 12.33341 h 12.33334 12.33333 12.33333 v -12.33341 h 12.33334 v -12.3333 h 12.33333 v -12.3333 h 12.33333 v -12.3334 h 12.33334 v -12.3333 h 12.33333 v -12.3333 -12.3334 z"
       id="path13" />
    <path
       style="fill:#fff8c9;fill-opacity:1;fill-rule:nonzero;stroke:none"
       d="m 489.61689,952.94529 h -12.33334 v 12.3334 12.3333 12.3333 h 12.33334 12.33332 v 12.33341 h 12.33333 v -12.33341 h 12.33334 v -12.3333 -12.3333 h -12.33334 v -12.3334 h -12.33333 v -12.3333 h -12.33332 z"
       id="path14" />
    <path
       style="fill:#fff8c9;fill-opacity:1;fill-rule:nonzero;stroke:none"
       d="m 600.61688,891.27869 v -12.3334 h -12.33334 v -12.3333 h -12.33333 -12.33333 v -12.3333 h -12.33334 v 12.3333 h -12.33333 v 12.3333 h -12.33333 v 12.3334 h -12.33334 v 12.3333 12.3333 12.3334 h -12.33333 v 12.3333 h 12.33333 12.33334 12.33333 v -12.3333 h 12.33333 12.33334 v -12.3334 h 12.33333 12.33333 12.33334 v -12.3333 h 12.33333 v -12.3333 z"
       id="path15" />
    <path
       style="fill:#c0c3c6;fill-opacity:1;fill-rule:nonzero;stroke:none"
       d="m 563.61688,1002.2787 h -12.33334 v -12.33341 h -12.33333 -12.33333 -12.33334 v 12.33341 h -12.33333 v 12.3333 h -12.33332 v 12.3333 h 12.33332 v 12.3334 h 12.33333 12.33334 v 12.3333 h 12.33333 v -12.3333 h 12.33333 v -12.3334 h 12.33334 v -12.3333 h 12.33333 v -12.3333 z"
       id="path16" />
    <path
       style="fill:#fff8c9;fill-opacity:1;fill-rule:nonzero;stroke:none"
       d="m 464.95022,1259.612 h -12.33333 -12.33334 v -12.3333 h -12.33333 -12.33333 -12.33334 v 12.3333 h -12.33333 v 12.3334 h -12.33333 v 12.3333 h 12.33333 v 12.3333 h 12.33333 12.33334 v 12.3334 h 12.33333 v 12 h 12.33333 12.33334 v 12.3333 h 12.33333 v 12.3333 h 12.33333 v -12.3333 -12.3333 -12 -12.3334 -12.3333 -12.3333 h -12.33333 z"
       id="path17" />
    <path
       style="fill:#fff8c9;fill-opacity:1;fill-rule:nonzero;stroke:none"
       d="m 637.61688,1247.2787 v -12.3333 h -12.33334 -12.33333 -12.33333 v 12.3333 h -12.33334 -12.33333 -12.33333 v 12.3333 h -12.33334 -12.33333 v 12.3334 h -12.33333 -12.33334 -12.33333 v 12.3333 h 12.33333 v 12.3333 h 12.33334 v 12.3334 12 h 12.33333 12.33333 v 12.3333 h 12.33334 12.33333 12.33333 v -12.3333 h 12.33334 v -12 h 12.33333 v -12.3334 h 12.33333 v -12.3333 h 12.33334 v -12.3333 h 12.33333 v -12.3334 -12.3333 z"
       id="path18" />
    <path
       style="fill:#c9971b;fill-opacity:1;fill-rule:nonzero;stroke:none"
       d="m 538.95021,1173.2787 v -12.3333 h -12.33333 -12.33334 -12.33333 v 12.3333 h -12.33332 v 12.3333 h -12.33334 v 12.3334 h -12.33333 v 12.3333 h -12.33333 -12.33334 v 12.3333 h -12.33333 v 12.3334 h -12.33333 v 12.3333 h 12.33333 12.33333 v 12.3333 h 12.33334 12.33333 v 12.3334 h 12.33333 12.33334 12.33332 v -12.3334 h 12.33333 v -12.3333 -12.3333 -12.3334 h 12.33334 v -12.3333 h 12.33333 v -12.3333 h 12.33333 v -12.3334 -12.3333 z"
       id="path19" />
    <path
       style="fill:#eace75;fill-opacity:1;fill-rule:nonzero;stroke:none"
       d="m 477.28355,1271.9454 v 12.3333 12.3333 12.3334 12 12.3333 h 12.33334 12.33332 12.33333 v -12.3333 h 12.33334 v -12 -12.3334 h -12.33334 v -12.3333 h -12.33333 v -12.3333 h -12.33332 z"
       id="path20" />
    <path
       style="fill:#eace75;fill-opacity:1;fill-rule:nonzero;stroke:none"
       d="m 600.61688,1222.612 v -12.3333 h -12.33334 v -12.3333 h -12.33333 -12.33333 v -12.3334 h -12.33334 v 12.3334 h -12.33333 v 12.3333 h -12.33333 v 12.3333 h -12.33334 v 12.3334 12.3333 12.3333 h -12.33333 v 12.3334 h 12.33333 12.33334 12.33333 v -12.3334 h 12.33333 12.33334 v -12.3333 h 12.33333 12.33333 12.33334 v -12.3333 h 12.33333 v -12.3334 z"
       id="path21" />
    <path
       style="fill:#fbcb00;fill-opacity:1;fill-rule:nonzero;stroke:none"
       d="m 563.61688,1333.2787 h -12.33334 v -12.3333 h -12.33333 -12.33333 -12.33334 v 12.3333 h -12.33333 -12.33332 -12.33334 v 12.3333 h 12.33334 v 12.3334 h 12.33332 v 12.3333 h 12.33333 12.33334 v 12.3333 h 12.33333 v -12.3333 h 12.33333 v -12.3333 h 12.33334 v -12.3334 h 12.33333 v -12.3333 z"
       id="path22" />
    <path
       style="fill:#fff8c9;fill-opacity:1;fill-rule:nonzero;stroke:none"
       d="m 160.95022,1318.612 v -12.3333 -12.3333 -12.3334 -12.3333 h -12.33333 v -12.3333 H 136.28356 123.95022 V 1244.612 H 111.61689 99.283561 86.950221 v 12.3334 h -12.33333 v 12.3333 h -12.33333 v 12.3333 h 12.33333 v 12.3334 h 12.33333 12.33334 v 12.3333 h 12.333329 v 12.3333 h 12.33333 12.33334 v 12.3334 h 12.33333 v 12.3333 h 12.33333 12.33334 v -12.3333 h -12.33334 z"
       id="path23" />
    <path
       style="fill:#fff8c9;fill-opacity:1;fill-rule:nonzero;stroke:none"
       d="m 320.95022,1244.612 v -12 h -12.33333 -12 -12.33334 v 12 h -12.33333 -12.33333 -12.33334 v 12.3334 h -12.33333 -12.33333 v 12.3333 H 210.28355 197.95023 185.6169 v 12.3333 h 12.33333 v 12.3334 h 12.33332 v 12.3333 12.3333 h 12.33334 v 12.3334 12.3333 h 12.33333 v 12.3333 h 12.33333 v -12.3333 h 12.33334 v -12.3333 h 12.33333 v -12.3334 h 12.33333 v -12.3333 h 12.33334 v -12.3333 h 12 v -12.3334 h 12.33333 v -12.3333 h 12.33333 v -12.3333 -12.3334 z"
       id="path24" />
    <path
       style="fill:#d5aa41;fill-opacity:1;fill-rule:nonzero;stroke:none"
       d="M 222.61689,1170.9454 V 1158.612 H 210.28355 197.95023 185.6169 v 12.3334 h -12.33334 v 12.3333 h -12.33334 v 12.3333 h -12.33333 v 12.3334 h -12.33333 -12.33334 v 12.3333 h -12.33333 v 12.3333 H 99.283561 v 12 h 12.333329 12.33333 v 12.3334 h 12.33334 12.33333 v 12.3333 h 12.33333 12.33334 12.33334 v -12.3333 h 12.33333 v -12.3334 -12 -12.3333 h 12.33332 v -12.3333 h 12.33334 v -12.3334 h 12.33333 v -12.3333 -12.3333 z"
       id="path25" />
    <path
       style="fill:#fbcb00;fill-opacity:1;fill-rule:nonzero;stroke:none"
       d="m 160.95022,1269.2787 v 12.3333 12.3334 12.3333 12.3333 12.3334 h 12.33334 v 12.3333 12.3333 h 12.33334 v 12.3334 h 12.33333 12.33332 v 12.3333 h 12.33334 v -12.3333 h 12.33333 v -12.3334 -12.3333 h -12.33333 v -12.3333 -12.3334 h -12.33334 v -12.3333 -12.3333 H 197.95023 V 1281.612 H 185.6169 v -12.3333 h -12.33334 z"
       id="path26" />
    <path
       style="fill:#fbcb00;fill-opacity:1;fill-rule:nonzero;stroke:none"
       d="m 284.28355,1220.2787 v -12.3333 h -12.33333 v -12.3334 h -12.33333 -12.33334 v -12.3333 h -12.33333 v 12.3333 h -12.33333 v 12.3334 h -12.33334 v 12.3333 h -12.33332 v 12.3333 12 12.3334 H 185.6169 v 12.3333 h 12.33333 12.33332 12.33334 v -12.3333 h 12.33333 12.33333 v -12.3334 h 12.33334 12.33333 12.33333 v -12 h 12.33334 v -12.3333 z"
       id="path27" />
    <path
       style="fill:#c9971b;fill-opacity:1;fill-rule:nonzero;stroke:none"
       d="m 160.95022,998.27869 v -12.3334 -12.3333 -12.3333 -12.3334 -12.3333 h -12.33333 v -12.3333 h -12.33333 -12.33334 v -12.3334 H 111.61689 99.283561 86.950221 v 12.3334 h -12.33333 v 12.3333 h -12.33333 v 12.3333 h 12.33333 v 12.3334 h 12.33333 12.33334 v 12.3333 h 12.333329 v 12.3333 h 12.33333 12.33334 v 12.3334 h 12.33333 v 12.33331 h 12.33333 12.33334 v -12.33331 z"
       id="path28" />
    <path
       style="fill:#fbcb00;fill-opacity:1;fill-rule:nonzero;stroke:none"
       d="m 320.95022,911.94529 v -12.3333 h -12.33333 -12 v -12.3333 h -12.33334 v -12.3334 h -12.33333 v -12.3333 h -12.33333 -12.33334 v -12.3333 h -12.33333 v -12.3334 h -12.33333 v -12.3333 H 210.28355 197.95023 185.6169 v 12.3333 h -12.33334 v 12.3334 h -12.33334 v 12.3333 h -12.33333 v 12.3333 h -12.33333 -12.33334 v 12.3334 h -12.33333 v 12.3333 H 99.283561 v 12.3333 h 12.333329 12.33333 v 12.3334 h 12.33334 12.33333 v 12.3333 h 12.33333 12.33334 12.33334 12.33333 12.33332 12.33334 12.33333 12.33333 12.33334 12.33333 12.33333 12.33334 v -12.3333 h 12 12.33333 12.33333 v -12.3334 z"
       id="path29" />
    <path
       style="fill:#ffeba0;fill-opacity:1;fill-rule:nonzero;stroke:none"
       d="m 320.95022,924.27869 h -12.33333 -12 v 12.3333 H 284.28355 271.95022 259.61689 247.28355 234.95022 222.61689 210.28355 197.95023 185.6169 173.28356 160.95022 v 12.3333 12.3334 12.3333 12.3333 12.3334 h 12.33334 v 12.33331 12.3333 h 12.33334 v 12 h 12.33333 12.33332 v 12.3334 h 12.33334 v -12.3334 h 12.33333 v -12 h 12.33333 v -12.3333 h 12.33334 v -12.33331 h 12.33333 v -12.3334 h 12.33333 v -12.3333 h 12.33334 v -12.3333 h 12 v -12.3334 h 12.33333 v -12.3333 h 12.33333 v -12.3333 z"
       id="path30" />
    <path
       style="fill:#fff8c9;fill-opacity:1;fill-rule:nonzero;stroke:none"
       d="M 320.95022,245.94534 V 233.612 h -12.33333 -12 V 221.27867 H 284.28355 V 208.94534 H 271.95022 V 196.612 H 259.61689 247.28355 V 184.27867 H 234.95022 V 171.94534 H 222.61689 V 159.61201 H 210.28355 197.95023 185.6169 v 12.33333 h -12.33334 v 12.33333 H 160.95022 V 196.612 h -12.33333 v 12.33334 h -12.33333 -12.33334 v 12.33333 H 111.61689 V 233.612 H 99.283561 v 12.33334 h -12.33334 v 12.33333 H 74.616891 V 270.612 h -12.33333 v 12.33334 h 12.33333 v 12.33333 h 12.33333 12.33334 v 12.33332 h 12.333329 v 12.33334 h 12.33333 12.33334 v 12.33333 h 12.33333 v 12.33333 h 12.33333 12.33334 v 12.33334 h 12.33334 v 12.33333 h 12.33333 12.33332 v 12.33333 h 12.33334 v -12.33333 h 12.33333 v -12.33333 h 12.33333 v -12.33334 h 12.33334 v -12.33333 h 12.33333 v -12.33333 h 12.33333 v -12.33334 h 12.33334 v -12.33332 h 12 v -12.33333 h 12.33333 V 270.612 h 12.33333 v -12.33333 -12.33333 z"
       id="path31" />
    <path
       style="fill:#c9971b;fill-opacity:1;fill-rule:nonzero;stroke:none"
       d="m 86.950221,578.94533 v 12.33333 h -12.33333 v 12.33332 h -12.33333 v 12.33334 h 12.33333 v 12.33333 h 12.33333 v -12.33333 -12.33334 h 12.33334 v -12.33332 -12.33333 z"
       id="path32" />
    <path
       style="fill:#020203;fill-opacity:1;fill-rule:nonzero;stroke:none"
       d="m 320.95022,578.94533 v -12.33334 h -12.33333 -12 V 554.27866 H 284.28355 V 541.94533 H 271.95022 V 529.61199 H 259.61689 247.28355 V 517.27866 H 234.95022 V 504.94533 H 222.61689 V 492.61199 H 210.28355 197.95023 185.6169 v 12.33334 h -12.33334 v 12.33333 h -12.33334 v 12.33333 h -12.33333 v 12.33334 h -12.33333 -12.33334 v 12.33333 h -12.33333 v 12.33333 H 99.283561 v 12.33334 12.33333 12.33332 h -12.33334 v 12.33334 12.33333 h 12.33334 v 12.33334 h 12.333329 v 12.3333 h 12.33333 12.33334 v 12.3334 h 12.33333 v 12.3333 h 12.33333 12.33334 v 12.3333 h 12.33334 v 12.3334 h 12.33333 12.33332 v 12.3333 h 12.33334 v -12.3333 h 12.33333 v -12.3334 h 12.33333 v -12.3333 h 12.33334 v -12.3333 h 12.33333 v -12.3334 h 12.33333 v -12.3333 h 12.33334 v -12.33334 h 12 v -12.33333 h 12.33333 v -12.33334 h 12.33333 v -12.33332 -12.33333 z"
       id="path33" />
    <path
       style="fill:#c0c3c6;fill-opacity:1;fill-rule:nonzero;stroke:none"
       d="m 449.28355,265.27867 v -13 h -13 v -13 h -13 -13 v 13 h -13 v 13 h -13 v 13 h -13 v 13 h 13 13 13 13 13 v -13 h 13 13 13 v -13 h -13 z"
       id="path34" />
    <path
       style="fill:#c0c3c6;fill-opacity:1;fill-rule:nonzero;stroke:none"
       d="m 540.28354,174.612 v -12.99999 h -13 -13 v 12.99999 13 12.66667 h -13 v 13 13 h -12.99999 v 13 13 13 13 h 12.99999 v -13 h 13 v -13 -13 -13 h 13 v -13 h 13 v -13 h 13 v -12.66667 -13 z"
       id="path35" />
    <path
       style="fill:#fbcb00;fill-opacity:1;fill-rule:nonzero;stroke:none"
       d="m 462.28355,278.27867 h -13 -13 v 13 h -13 -13 -13 -13 v 13 h 13 13 13 13 13 13 v 12.99999 h 13 v -12.99999 -13 h 13 v -13 h -13 z"
       id="path36" />
    <path
       style="fill:#fbcb00;fill-opacity:1;fill-rule:nonzero;stroke:none"
       d="M 501.28354,161.61201 V 174.612 h -12.99999 v 13 h -13 v 12.66667 h -13 v 13 13 h 13 v 13 h 13 v -13 h 12.99999 v -13 -13 h 13 v -12.66667 -13 -12.99999 z"
       id="path37" />
    <path
       style="fill:#c9971b;fill-opacity:1;fill-rule:nonzero;stroke:none"
       d="m 475.28355,330.27866 v -13 h -13 v -12.99999 h -13 -13 -13 -13 v 12.99999 h 13 v 13 h 13 13 v 13 h 13 v 13 h 13 13 12.99999 v -13 -13 h -12.99999 z"
       id="path38" />
    <path
       style="fill:#c9971b;fill-opacity:1;fill-rule:nonzero;stroke:none"
       d="m 644.28354,252.27867 v -13 h -13 -13 -13 v 13 h -13 -13 -13 v 13 h -13 -13 v 13 h -13 -13 -13 v 13 h 13 v 13 h 13 v 12.99999 13 h 13 13 v 13 h 13 13 13 v -13 h 13 v -13 h 13 v -12.99999 h 13 v -13 h 13 v -13 h 13 v -13 -13 z"
       id="path39" />
    <path
       style="fill:#fff8c9;fill-opacity:1;fill-rule:nonzero;stroke:none"
       d="m 475.28355,239.27867 h -13 v -13 -13 h -13 -13 v 13 h -13 v 13 h 13 v 13 h 13 v 13 h 13 13 v -13 z"
       id="path40" />
    <path
       style="fill:#fff8c9;fill-opacity:1;fill-rule:nonzero;stroke:none"
       d="m 475.28355,265.27867 v 13 h 13 v -13 z"
       id="path41" />
    <path
       style="fill:#ffeba0;fill-opacity:1;fill-rule:nonzero;stroke:none"
       d="m 462.28355,226.27867 v 13 h 13 v -13 z"
       id="path42" />
    <path
       style="fill:#ffeba0;fill-opacity:1;fill-rule:nonzero;stroke:none"
       d="m 475.28355,239.27867 v 13 13 h 13 v -13 -13 z"
       id="path43" />
    <path
       style="fill:#eace75;fill-opacity:1;fill-rule:nonzero;stroke:none"
       d="m 488.28355,291.27867 h -13 v 13 12.99999 13 h 13 12.99999 v 13 h 13 v -13 h 13 v -13 -12.99999 h -13 v -13 h -13 v -13 h -12.99999 z"
       id="path44" />
    <path
       style="fill:#eace75;fill-opacity:1;fill-rule:nonzero;stroke:none"
       d="m 605.28354,226.27867 v -13 h -13 v -13 h -13 -13 V 187.612 h -13 v 12.66667 h -13 v 13 h -13 v 13 h -13 v 13 13 13 h -13 v 13 h 13 13 13 v -13 h 13 13 v -13 h 13 13 13 v -13 h 13 v -13 z"
       id="path45" />
    <path
       style="fill:#f8e7a5;fill-opacity:1;fill-rule:nonzero;stroke:none"
       d="m 566.28354,343.27866 h -13 v -13 h -13 -13 -13 v 13 h -13 v 13 h -12.99999 v 13 h 12.99999 v 13 h 13 13 v 13 h 13 v -13 h 13 v -13 h 13 v -13 h 13 v -13 z"
       id="path46" />
  </g>
  <plotdata
     application="axidraw"
     model="2"
     layer="-2"
     node="0"
     last_path="0"
     node_after_path="0"
     last_known_x="0"
     last_known_y="0"
     paused_x="0"
     paused_y="0"
     randseed="0"
     row="0"
     id="1738290128" />
</svg>
